<svg width="16" height="16" viewBox="0 0 16 16" fill="none" xmlns="http://www.w3.org/2000/svg">
<path d="M8 0C3.584 0 0 3.584 0 8C0 12.416 3.584 16 8 16C12.416 16 16 12.416 16 8C16 3.584 12.416 0 8 0ZM7.688 13.2C5.328 13.2 3.8 11.432 3.8 8.752C3.8 5.296 6.192 2.792 8.888 2.792C10.52 2.792 11.488 3.616 11.488 4.728C11.488 5.84 10.656 6.696 9.944 6.696C9.768 6.696 9.68 6.608 9.68 6.464C9.68 6.144 10.192 5.664 10.192 4.76C10.192 4 9.728 3.52 8.968 3.52C7.336 3.52 5.48 5.448 5.48 8.784C5.48 10.752 6.456 12.176 8.032 12.176C9.4 12.176 10.576 11.2 11.256 9.808C11.32 9.688 11.376 9.632 11.44 9.632C11.536 9.632 11.624 9.712 11.624 9.896C11.624 10.704 10.176 13.192 7.672 13.192L7.688 13.2Z" fill="#4B4B4B"/>
</svg>
