<svg width="16" height="16" viewBox="0 0 16 16" fill="none" xmlns="http://www.w3.org/2000/svg">
<path d="M5.30769 0C4.69566 0 4.10868 0.252856 3.67591 0.702944C3.24313 1.15303 3 1.76348 3 2.4C3 3.03652 3.24313 3.64697 3.67591 4.09706C4.10868 4.54714 4.69566 4.8 5.30769 4.8H10.6923C11.3043 4.8 11.8913 4.54714 12.3241 4.09706C12.7569 3.64697 13 3.03652 13 2.4C13 1.76348 12.7569 1.15303 12.3241 0.702944C11.8913 0.252856 11.3043 0 10.6923 0H5.30769ZM10.6923 5.6C10.0803 5.6 9.4933 5.85286 9.06052 6.30294C8.62775 6.75303 8.38462 7.36348 8.38462 8C8.38462 8.63652 8.62775 9.24697 9.06052 9.69706C9.4933 10.1471 10.0803 10.4 10.6923 10.4C11.3043 10.4 11.8913 10.1471 12.3241 9.69706C12.7569 9.24697 13 8.63652 13 8C13 7.36348 12.7569 6.75303 12.3241 6.30294C11.8913 5.85286 11.3043 5.6 10.6923 5.6ZM3 8C3 7.36348 3.24313 6.75303 3.67591 6.30294C4.10868 5.85286 4.69566 5.6 5.30769 5.6H7.61539V10.4H5.30769C4.69566 10.4 4.10868 10.1471 3.67591 9.69706C3.24313 9.24697 3 8.63652 3 8ZM5.30769 11.2C4.85127 11.2 4.40511 11.3408 4.02561 11.6045C3.64611 11.8682 3.35033 12.243 3.17566 12.6816C3.001 13.1201 2.9553 13.6027 3.04434 14.0682C3.13339 14.5338 3.35317 14.9614 3.67591 15.2971C3.99864 15.6327 4.40984 15.8613 4.85748 15.9539C5.30513 16.0465 5.76913 15.999 6.19081 15.8173C6.61248 15.6357 6.9729 15.328 7.22647 14.9334C7.48004 14.5387 7.61539 14.0747 7.61539 13.6V11.2H5.30769Z" fill="#4B4B4B"/>
</svg>
