<svg width="16" height="16" viewBox="0 0 16 16" fill="none" xmlns="http://www.w3.org/2000/svg">
<path d="M0 0V16H16V0H0ZM8.72267 12.4649C8.72267 14.0382 7.79378 14.7618 6.45156 14.7618C5.26489 14.7618 4.56711 14.1422 4.20622 13.368L5.44533 12.5938C5.65156 13.032 5.88356 13.3671 6.42578 13.3671C6.94133 13.3671 7.22578 13.1867 7.22578 12.4133V7.35556H8.72267V12.4649ZM12.2836 14.7618C10.8907 14.7618 9.98756 14.0649 9.52267 13.2391L10.7618 12.5164C11.0969 13.032 11.5351 13.4196 12.2578 13.4196C12.8773 13.4196 13.2649 13.1351 13.2649 12.6453C13.2649 12.1298 12.8773 11.9484 12.1804 11.6382L11.8196 11.4836C10.7351 11.0453 10.0124 10.4258 10.0124 9.18667C10.0124 8.05156 10.8391 7.22578 12.2062 7.22578C13.1618 7.22578 13.8329 7.56178 14.3218 8.43822L13.1618 9.21245C12.904 8.77422 12.6453 8.568 12.1804 8.568C11.7422 8.568 11.4578 8.85244 11.4578 9.21333C11.4578 9.65156 11.7422 9.832 12.3618 10.1164L12.7227 10.2711C13.9867 10.8133 14.7351 11.3556 14.7351 12.6444C14.7618 14.0133 13.704 14.7618 12.2836 14.7618Z" fill="#4B4B4B"/>
</svg>
