<svg width="24" height="27" viewBox="0 0 24 27" fill="none" xmlns="http://www.w3.org/2000/svg">
<path d="M10.6667 3.86035C11.0203 3.86035 11.3594 3.99593 11.6095 4.23724C11.8595 4.47856 12 4.80586 12 5.14714C12 5.48842 11.8595 5.81571 11.6095 6.05703C11.3594 6.29835 11.0203 6.43392 10.6667 6.43392H2.66667V20.5886H17.3333V12.8678C17.3333 12.5266 17.4738 12.1993 17.7239 11.958C17.9739 11.7166 18.313 11.5811 18.6667 11.5811C19.0203 11.5811 19.3594 11.7166 19.6095 11.958C19.8595 12.1993 20 12.5266 20 12.8678V20.5886C20 21.2711 19.719 21.9257 19.219 22.4083C18.7189 22.891 18.0406 23.1621 17.3333 23.1621H2.66667C1.95942 23.1621 1.28115 22.891 0.781048 22.4083C0.280951 21.9257 0 21.2711 0 20.5886V6.43392C0 5.75137 0.280951 5.09677 0.781048 4.61413C1.28115 4.1315 1.95942 3.86035 2.66667 3.86035H10.6667ZM22.6667 0C23.0203 0 23.3594 0.135572 23.6095 0.37689C23.8595 0.618209 24 0.945508 24 1.28678V7.72071C24 8.06198 23.8595 8.38928 23.6095 8.6306C23.3594 8.87192 23.0203 9.00749 22.6667 9.00749C22.313 9.00749 21.9739 8.87192 21.7239 8.6306C21.4738 8.38928 21.3333 8.06198 21.3333 7.72071V4.39308L10.276 15.0644C10.0245 15.2988 9.68773 15.4285 9.33813 15.4256C8.98854 15.4226 8.65412 15.2873 8.40691 15.0487C8.1597 14.8101 8.01947 14.4874 8.01644 14.15C8.0134 13.8126 8.14779 13.4876 8.39067 13.2449L19.448 2.57357H16C15.6464 2.57357 15.3072 2.438 15.0572 2.19668C14.8071 1.95536 14.6667 1.62806 14.6667 1.28678C14.6667 0.945508 14.8071 0.618209 15.0572 0.37689C15.3072 0.135572 15.6464 0 16 0H22.6667Z" fill="white"/>
</svg>
