<svg width="16" height="16" viewBox="0 0 16 16" fill="none" xmlns="http://www.w3.org/2000/svg">
<path d="M5.33337 5.33325V7.33325H6.33337C6.59859 7.33325 6.85294 7.2279 7.04048 7.04036C7.22802 6.85282 7.33337 6.59847 7.33337 6.33325C7.33337 6.06804 7.22802 5.81368 7.04048 5.62615C6.85294 5.43861 6.59859 5.33325 6.33337 5.33325H5.33337Z" fill="#4B4B4B"/>
<path d="M14.6667 1.33325H1.33337V14.6666H14.6667V1.33325ZM5.33337 8.66658V11.9999H4.00004V3.99992H6.33337C6.63979 3.99992 6.94321 4.06027 7.2263 4.17753C7.50939 4.29479 7.76662 4.46667 7.98329 4.68334C8.19996 4.90001 8.37183 5.15723 8.48909 5.44032C8.60635 5.72342 8.66671 6.02683 8.66671 6.33325C8.66671 6.63967 8.60635 6.94309 8.48909 7.22618C8.37183 7.50927 8.19996 7.7665 7.98329 7.98317C7.76662 8.19984 7.50939 8.37171 7.2263 8.48897C6.94321 8.60623 6.63979 8.66658 6.33337 8.66658H5.33337ZM9.00004 8.30192C9.00004 7.8682 9.17233 7.45225 9.47902 7.14556C9.7857 6.83888 10.2017 6.66658 10.6354 6.66658H12V7.99992H10.6354C10.5636 7.99984 10.4941 8.02533 10.4394 8.07183C10.3847 8.11832 10.3484 8.18278 10.3369 8.25364C10.3255 8.3245 10.3396 8.39713 10.3768 8.45851C10.414 8.51989 10.4719 8.566 10.54 8.58858L11.2154 8.81325C11.5837 8.9361 11.8963 9.18599 12.0973 9.51823C12.2982 9.85047 12.3744 10.2434 12.3122 10.6266C12.25 11.0099 12.0534 11.3585 11.7577 11.6101C11.4619 11.8617 11.0863 11.9999 10.698 11.9999H9.00004V10.6666H10.698C10.7698 10.6667 10.8393 10.6412 10.894 10.5947C10.9487 10.5482 10.985 10.4837 10.9965 10.4129C11.008 10.342 10.9938 10.2694 10.9566 10.208C10.9194 10.1466 10.8615 10.1005 10.7934 10.0779L10.118 9.85325C9.79231 9.74495 9.50898 9.53678 9.30829 9.25829C9.10759 8.97981 8.99974 8.64518 9.00004 8.30192Z" fill="#4B4B4B"/>
</svg>
