<svg width="220" height="279" viewBox="0 0 220 279" fill="none" xmlns="http://www.w3.org/2000/svg">
<path d="M155.522 59.1297C166.208 80.6482 170.304 97.5429 183.66 112.126C197.017 126.709 219.456 138.979 219.99 151.428C220.525 163.877 198.976 176.503 188.291 195.71C177.605 214.739 177.605 240.17 166.564 255.82C155.522 271.47 133.439 277.516 110.644 278.761C87.8488 280.006 64.3411 276.449 43.1486 266.668C22.1342 256.709 3.43498 240.526 0.407481 220.074C-2.44193 199.8 10.3804 175.436 16.2573 154.451C22.3123 133.466 21.2438 116.038 22.4904 92.7413C23.737 69.6222 27.2988 40.8123 42.6144 22.1392C57.7519 3.46608 84.6432 -5.24804 106.37 3.28824C128.275 12.0024 145.015 37.789 155.522 59.1297Z" fill="#FACB4B"/>
</svg>
