<svg width="16" height="16" viewBox="0 0 16 16" fill="none" xmlns="http://www.w3.org/2000/svg">
<path d="M9.835 5.00429C9.835 5.31754 9.8875 5.79224 9.1175 6.05971C8.88 6.14164 8.7175 6.29344 8.7175 6.29344C8.7175 5.54646 8.835 5.27658 9.1525 5.11513C9.3975 4.99224 9.8325 5.00429 9.8325 5.00429H9.835ZM6.94 5.85971L6.085 9.05729L5.3725 6.44043C5.18 5.66935 4.8525 5.27176 4.1625 5.27176C3.4775 5.27176 3.145 5.66212 2.9525 6.44043L2.2375 9.05729L1.3825 5.85971C1.2425 5.21634 0.5975 4.93923 0 5.01152L1.64 10.985C1.64 10.985 2.18 11.0235 2.4525 10.8886C2.8075 10.7151 2.9775 10.5802 3.1925 9.76572C3.385 9.04042 3.92 6.91272 3.97 6.76091C4.09 6.40188 4.2475 6.42838 4.355 6.76091C4.405 6.91272 4.9425 9.04042 5.1325 9.76572C5.3475 10.5778 5.5175 10.7127 5.8725 10.8886C6.1425 11.0211 6.685 10.985 6.685 10.985L8.3225 5.01152C7.7125 4.93682 7.0775 5.22598 6.94 5.86212V5.85971ZM9.835 5.98501C9.835 5.98501 9.7325 6.13682 9.4975 6.26453C9.3475 6.34645 9.2025 6.39947 9.0475 6.47175C8.67 6.64766 8.7175 6.80669 8.7175 7.31994V10.985C8.7175 10.985 9.1325 11.0356 9.4025 10.9031C9.75 10.732 9.83 10.5657 9.835 9.82355V5.98501ZM13.92 8.01151L16 5.0308C16 5.0308 15.1225 4.88622 14.6875 5.26694C14.355 5.55851 14.0775 5.98019 13.3325 7.01392C13.32 7.03079 13.175 7.26693 13.005 7.01392C12.2725 5.99706 11.985 5.56092 11.65 5.26694C11.215 4.88622 10.3375 5.0308 10.3375 5.0308L12.4175 8.01151L10.3425 10.985C10.3425 10.985 11.2575 11.0958 11.6925 10.7151C11.98 10.4621 12.1325 10.2235 13.005 9.0115C13.175 8.75849 13.32 8.99223 13.3325 9.0115C14.0675 10.0332 14.3125 10.4115 14.66 10.7151C15.095 11.0958 15.9925 10.985 15.9925 10.985L13.9175 8.01151H13.92Z" fill="#4B4B4B"/>
</svg>
