<svg width="16" height="16" viewBox="0 0 16 16" fill="none" xmlns="http://www.w3.org/2000/svg">
<path d="M1.136 8C1.136 7.008 1.352 6.064 1.728 5.2L5.008 14.176C3.84656 13.6156 2.86697 12.7386 2.18197 11.646C1.49698 10.5534 1.13441 9.28957 1.136 8ZM12.632 7.656C12.632 8.24 12.4 8.92 12.112 9.872L11.424 12.16L8.944 4.8L9.728 4.72C10.104 4.672 10.056 4.128 9.688 4.152C9.688 4.152 8.576 4.24 7.856 4.24L6.048 4.152C5.68 4.128 5.64 4.696 6 4.72L6.728 4.8L7.8 7.712L6.296 12.216L3.792 4.8L4.584 4.72C4.952 4.672 4.904 4.128 4.536 4.152C4.536 4.152 3.424 4.24 2.704 4.24L2.264 4.232C3.496 2.368 5.6 1.136 8 1.136C9.784 1.136 11.416 1.824 12.632 2.936H12.544C11.872 2.936 11.392 3.52 11.392 4.152C11.392 4.72 11.72 5.2 12.064 5.76C12.328 6.216 12.632 6.8 12.632 7.656ZM8.12 8.6L10.232 14.376L10.28 14.472C9.568 14.728 8.8 14.864 8 14.864C7.328 14.864 6.68 14.768 6.064 14.584L8.12 8.6ZM14.024 4.704C14.5771 5.71441 14.866 6.84813 14.864 8C14.864 10.528 13.488 12.744 11.448 13.928L13.544 7.872C13.936 6.896 14.072 6.112 14.072 5.416L14.024 4.704ZM8 0C9.05058 0 10.0909 0.206926 11.0615 0.608964C12.0321 1.011 12.914 1.60028 13.6569 2.34315C14.3997 3.08601 14.989 3.96793 15.391 4.93853C15.7931 5.90914 16 6.94943 16 8C16 10.1217 15.1571 12.1566 13.6569 13.6569C12.1566 15.1571 10.1217 16 8 16C6.94943 16 5.90914 15.7931 4.93853 15.391C3.96793 14.989 3.08601 14.3997 2.34315 13.6569C0.842855 12.1566 0 10.1217 0 8C0 5.87827 0.842855 3.84344 2.34315 2.34315C3.84344 0.842855 5.87827 0 8 0ZM8 15.632C12.208 15.632 15.632 12.208 15.632 8C15.632 3.792 12.208 0.368 8 0.368C3.792 0.368 0.368 3.792 0.368 8C0.368 12.208 3.792 15.632 8 15.632Z" fill="#4B4B4B"/>
</svg>
